<?xml version="1.0" encoding="utf-8"?>
<!-- Generator: Adobe Illustrator 21.1.0, SVG Export Plug-In . SVG Version: 6.00 Build 0)  -->
<svg version="1.1" id="Layer_1" xmlns="http://www.w3.org/2000/svg" xmlns:xlink="http://www.w3.org/1999/xlink" x="0px" y="0px"
	 viewBox="0 0 282 66" style="enable-background:new 0 0 282 66;" xml:space="preserve">
<style type="text/css">
	.st0{fill:#FFFFFF;}
</style>
<g>
	
		<rect x="47.8" y="29.7" transform="matrix(0.9763 -0.2163 0.2163 0.9763 -5.3227 16.7563)" class="st0" width="52.2" height="5.9"/>
	<rect x="35.6" y="12.1" class="st0" width="69.1" height="5.7"/>
	<rect x="40.4" y="23.5" class="st0" width="59.6" height="6.3"/>
	<rect x="47.7" y="35.6" class="st0" width="45.9" height="6"/>
	<path class="st0" d="M104.7,17.9L41.3,28.8l-0.9-5.4c21.4-3.8,42.9-7.5,64.3-11.3c-1.9,14.6-7.4,21.4-12.3,25
		c-13,9.3-33.4,3-35.3,9.7c-0.6,2.1,1,4.2,1.2,4.4c5,6,24.3,1.3,35.3-9.7C101.6,33.6,104,23.6,104.7,17.9z"/>
	<g>
		<path class="st0" d="M124.3,14.6h14.3c11.4,0,19.2,7.2,19.2,18.1s-7.9,18.1-19.2,18.1h-14.3V14.6z M138.6,44
			c7.2,0,11.4-5.2,11.4-11.3c0-6.4-3.9-11.4-11.4-11.4H132V44H138.6z"/>
		<path class="st0" d="M169.7,27.2v23.6H162V14.6h7.9l16.8,22.8V14.6h7.7v36.2H187L169.7,27.2z"/>
		<path class="st0" d="M224.3,44.7h-15.5l-2.3,6.1h-8.8l14-36.2h9.7l14,36.2h-8.8L224.3,44.7z M210.9,37.9h11.3l-5.7-15.6
			L210.9,37.9z"/>
		<path class="st0" d="M238.7,14.6h7.7v36.2h-7.7V14.6z"/>
	</g>
</g>
</svg>
